<?xml version="1.0" encoding="UTF-8"?>
<svg width="260px" height="438px" viewBox="0 0 260 438" version="1.1" xmlns="http://www.w3.org/2000/svg" xmlns:xlink="http://www.w3.org/1999/xlink">
    <!-- Generator: Sketch 49.3 (51167) - http://www.bohemiancoding.com/sketch -->
    <title>alertImg</title>
    <desc>Created with Sketch.</desc>
    <defs></defs>
    <g id="Page-1" stroke="none" stroke-width="1" fill="none" fill-rule="evenodd">
        <g id="Artboard-5" transform="translate(-2620.000000, -195.000000)" fill="#000000" fill-rule="nonzero">
            <g id="alertImg" transform="translate(2620.000000, 195.000000)">
                <path d="M153.54,184.7 C151.2002,180.8328 147.958,177.5906 144.0869,175.2508 C137.8525,171.5555 130.4029,170.4735 123.3719,172.243 C116.3407,174.0125 110.2939,178.493 106.5519,184.7 L40.7509,294.6 C37.4892,299.9516 36.2548,306.299 37.2665,312.487 C38.2782,318.6706 41.4696,324.292 46.2665,328.331 C51.0634,332.3701 57.1455,334.5576 63.4145,334.499 L196.5845,334.499 C202.479,334.534156 208.2095,332.5849 212.8615,328.9678 C217.5099,325.3467 220.8107,320.2686 222.2248,314.5498 C223.9904,307.7725 222.91621,300.5658 219.2482,294.6008 L153.54,184.7 Z M205.251,310.26 C204.71194,312.5686 203.2588,314.5569 201.2276,315.7717 C199.8096,316.57248 198.2159,316.9944 196.587,316.9983 L63.417,316.9983 C58.5811,316.9983 54.667,313.0803 54.667,308.2483 C54.659188,306.6116 55.11622,305.0022 55.9795,303.6116 L121.2525,193.7116 C123.0728,190.6335 126.4244,188.7858 130.0025,188.8991 C133.5884,188.74676 136.9595,190.6022 138.7525,193.7116 L204.5535,303.5216 C205.6824,305.5841 205.9324,308.0138 205.25272,310.2599 L205.251,310.26 Z" id="Shape"></path>
                <path d="M130,272.73 C132.3203,272.73 134.5469,271.80813 136.1875,270.1675 C137.8281,268.523 138.75,266.3003 138.75,263.98 L138.75,222.066 C138.75,217.234 134.832,213.316 130,213.316 C125.168,213.316 121.25,217.234 121.25,222.066 L121.25,263.98 C121.25,266.3003 122.17188,268.523 123.8125,270.1675 C125.4531,271.8081 127.6797,272.73 130,272.73 Z" id="Shape"></path>
                <path d="M140.94,293.99 C140.94,300.0291 136.0416,304.928 130.002,304.928 C123.9624,304.928 119.064,300.0296 119.064,293.99 C119.064,287.947 123.9624,283.052 130.002,283.052 C136.0416,283.052 140.94,287.9465 140.94,293.99" id="Shape"></path>
                <path d="M49.5,0.25 C36.426,0.25 23.887,5.4375 14.637,14.672 C5.3831,23.9103 0.172,36.438 0.149,49.512 L0.149,388.492 C0.172437,401.566 5.3834,414.094 14.637,423.332 C23.887,432.5664 36.426,437.754 49.5,437.754 L210.5,437.754 C223.574,437.754 236.113,432.5665 245.363,423.332 C254.6169,414.0937 259.828,401.566 259.851,388.492 L259.851,49.512 C259.827563,36.438 254.6166,23.91 245.363,14.672 C236.113,5.4376 223.574,0.25 210.5,0.25 L49.5,0.25 Z M176.55,17.75 C173.6516,22.75 172.1125,28.422 172.0852,34.199 C172.0852,36.0545 171.35082,37.8357 170.0383,39.1482 C168.7219,40.4607 166.9445,41.199 165.0852,41.199 L94.9992,41.199 C91.132,41.199 87.9992,38.0662 87.9992,34.199 C87.948419,28.4138 86.3781,22.742 83.4484,17.75 L176.55,17.75 Z M210.499,420.25 L49.499,420.25 C41.0654,420.25 32.979,416.9062 27.007,410.9531 C21.0382,405 17.6711,396.9181 17.6476,388.4881 L17.6476,119.7781 L242.3476,119.7781 L242.3476,388.4881 C242.324163,396.9178 238.957,405.0001 232.9882,410.9531 C227.0155,416.9062 218.9292,420.25 210.4962,420.25 L210.499,420.25 Z M242.351,49.51 L242.351,102.01 L17.651,102.01 L17.651,49.51 C17.674437,41.0803 21.0416,32.998 27.0104,27.045 C32.9831,21.0919 41.0694,17.7481 49.5024,17.7481 L53.9633,17.7481 C58.3266,17.7481 62.5102,19.4825 65.5963,22.5645 C68.6822,25.6504 70.4166,29.834 70.4166,34.1975 C70.4166,40.6975 72.9947,46.9275 77.5924,51.5215 C82.1862,56.1153 88.4164,58.6973 94.9164,58.6973 L164.9164,58.6973 C171.4125,58.6973 177.6434,56.1153 182.2404,51.5215 C186.8342,46.9277 189.4162,40.6975 189.4162,34.1975 C189.4162,29.8069 191.1701,25.5959 194.2951,22.5025 C197.4162,19.4127 201.6467,17.7017 206.0411,17.7486 L210.502,17.7486 C218.9356,17.7486 227.022,21.0924 232.994,27.0455 C238.9628,32.9986 242.3299,41.0805 242.3534,49.5105 L242.351,49.51 Z" id="Shape"></path>
                <path d="M150.39,387.79 L109.617,387.79 C104.785,387.79 100.867,391.7041 100.867,396.54 C100.867,401.372 104.785,405.29 109.617,405.29 L150.39,405.29 C155.222,405.29 159.14,401.372 159.14,396.54 C159.14,391.7041 155.222,387.79 150.39,387.79 Z" id="Shape"></path>
                <path d="M150.04,82.15 C150.04,88.193 145.1416,93.088 139.102,93.088 C133.059,93.088 128.164,88.1935 128.164,82.15 C128.164,76.1109 133.0585,71.212 139.102,71.212 C145.1411,71.212 150.04,76.1104 150.04,82.15" id="Shape"></path>
                <path d="M184.95,82.15 C184.95,88.193 180.0555,93.088 174.012,93.088 C167.9729,93.088 163.074,88.1935 163.074,82.15 C163.074,76.1109 167.9724,71.212 174.012,71.212 C180.055,71.212 184.95,76.1104 184.95,82.15" id="Shape"></path>
                <path d="M219.86,82.15 C219.86,88.193 214.9616,93.088 208.922,93.088 C202.879,93.088 197.984,88.1935 197.984,82.15 C197.984,76.1109 202.8785,71.212 208.922,71.212 C214.9611,71.212 219.86,76.1104 219.86,82.15" id="Shape"></path>
                <path d="M82.49,73.4 L43.115,73.4 C38.283,73.4 34.365,77.318 34.365,82.15 C34.365,86.9859 38.283,90.9 43.115,90.9 L82.49,90.9 C87.322,90.9 91.24,86.9859 91.24,82.15 C91.24,77.318 87.322,73.4 82.49,73.4 Z" id="Shape"></path>
            </g>
        </g>
    </g>
</svg>