<?xml version="1.0" encoding="UTF-8"?>
<svg width="433px" height="433px" viewBox="0 0 433 433" version="1.1" xmlns="http://www.w3.org/2000/svg" xmlns:xlink="http://www.w3.org/1999/xlink">
    <!-- Generator: Sketch 49.3 (51167) - http://www.bohemiancoding.com/sketch -->
    <title>Group 7</title>
    <desc>Created with Sketch.</desc>
    <defs></defs>
    <g id="Page-1" stroke="none" stroke-width="1" fill="none" fill-rule="evenodd">
        <g id="Artboard-5" transform="translate(-3185.000000, -371.000000)">
            <g id="noun-clipboard-1012516" transform="translate(2941.000000, 198.000000)">
                <g id="Group-7" transform="translate(253.000000, 182.000000)">
                    <circle id="Oval-2" stroke="#FFFFFF" stroke-width="18" cx="207.5" cy="207.5" r="207.5"></circle>
                    <path d="M58.5,348.5 L354.5,63.5" id="Line" stroke="#FFFFFF" stroke-width="18" stroke-linecap="square"></path>
                    <path d="M185.447931,77 C175.39586,77 166.955062,83.9705467 164.513486,93.2895862 L125.720069,93.2895862 C113.781198,93.2895862 104,103.070785 104,115.009655 L104,315.911449 C104,327.85032 113.781198,337.631518 125.720069,337.631518 L288.615931,337.631518 C300.554802,337.631518 310.336,327.85032 310.336,315.911449 L310.336,115.009655 C310.336,103.070785 300.554802,93.2895862 288.615931,93.2895862 L249.822514,93.2895862 C247.380891,83.9705467 238.939674,77 228.888069,77 L185.447931,77 Z M185.447931,87.8591036 L228.888069,87.8591036 C234.998525,87.8591036 239.747172,92.6096124 239.747172,98.7200689 C239.747172,104.830525 234.998525,109.579172 228.888069,109.579172 L185.447931,109.579172 C179.337475,109.579172 174.588828,104.830525 174.588828,98.7200689 C174.588828,92.6096124 179.337475,87.8591036 185.447931,87.8591036 Z M125.721,104.14869 L164.514417,104.14869 C166.956039,113.467729 175.397256,120.438276 185.448862,120.438276 L228.889,120.438276 C238.941071,120.438276 247.381869,113.467729 249.823445,104.14869 L288.616862,104.14869 C294.727318,104.14869 299.475966,108.899199 299.475966,115.009655 L299.475966,315.911449 C299.475966,322.021906 294.727318,326.772414 288.616862,326.772414 L125.721,326.772414 C119.610543,326.772414 114.861896,322.021906 114.861896,315.911449 L114.861896,115.009655 C114.861896,108.899199 119.610543,104.14869 125.721,104.14869 Z M152.86969,153.017449 C149.871754,153.017449 147.441069,155.449996 147.441069,158.447931 C147.441069,159.887837 148.011949,161.26952 149.030048,162.287619 C150.049962,163.305718 151.42983,163.878414 152.869736,163.878414 L261.47008,163.878414 C262.909987,163.878414 264.289854,163.305718 265.309769,162.287619 C266.327868,161.26952 266.898748,159.887837 266.898748,158.447931 C266.898748,157.008025 266.327868,155.626342 265.309769,154.608243 C264.289854,153.590144 262.909987,153.017449 261.47008,153.017449 L152.86969,153.017449 Z M152.86969,185.596621 C149.871754,185.596621 147.441069,188.029168 147.441069,191.027104 C147.441069,192.46701 148.011949,193.848693 149.030048,194.866792 C150.049962,195.884891 151.42983,196.457586 152.869736,196.457586 L261.47008,196.457586 C262.909987,196.457586 264.289854,195.884891 265.309769,194.866792 C266.327868,193.848693 266.898748,192.46701 266.898748,191.027104 C266.898748,189.587197 266.327868,188.205515 265.309769,187.187415 C264.289854,186.169316 262.909987,185.596621 261.47008,185.596621 L152.86969,185.596621 Z M152.86969,218.175793 C149.871754,218.175793 147.441069,220.608341 147.441069,223.606276 C147.441069,225.046182 148.011949,226.427865 149.030048,227.445964 C150.049962,228.464063 151.42983,229.036759 152.869736,229.036759 L261.47008,229.036759 C262.909987,229.036759 264.289854,228.464063 265.309769,227.445964 C266.327868,226.427865 266.898748,225.046182 266.898748,223.606276 C266.898748,222.16637 266.327868,220.784687 265.309769,219.766588 C264.289854,218.748489 262.909987,218.175793 261.47008,218.175793 L152.86969,218.175793 Z M152.86969,250.754966 C149.871754,250.754966 147.441069,253.187513 147.441069,256.185449 C147.441069,257.625355 148.011949,259.007038 149.030048,260.025137 C150.049962,261.043236 151.42983,261.615931 152.869736,261.615931 L261.47008,261.615931 C262.909987,261.615931 264.289854,261.043236 265.309769,260.025137 C266.327868,259.007038 266.898748,257.625355 266.898748,256.185449 C266.898748,254.745542 266.327868,253.363859 265.309769,252.34576 C264.289854,251.327661 262.909987,250.754966 261.47008,250.754966 L152.86969,250.754966 Z M152.86969,283.334138 C149.871754,283.334138 147.441069,285.766686 147.441069,288.764621 C147.441069,291.762556 149.871801,294.195104 152.86969,294.195104 L201.738448,294.195104 C204.738199,294.195104 207.168931,291.762556 207.168931,288.764621 C207.168931,285.766686 204.738199,283.334138 201.738448,283.334138 L152.86969,283.334138 Z" id="Shape" fill="#FFFFFF" fill-rule="nonzero"></path>
                </g>
            </g>
        </g>
    </g>
</svg>