<?xml version="1.0" encoding="UTF-8"?>
<svg width="1316px" height="301px" viewBox="0 0 1316 301" version="1.1" xmlns="http://www.w3.org/2000/svg" xmlns:xlink="http://www.w3.org/1999/xlink">
    <!-- Generator: Sketch 49.3 (51167) - http://www.bohemiancoding.com/sketch -->
    <title>Group 3</title>
    <desc>Created with Sketch.</desc>
    <defs>
        <linearGradient x1="25.1471898%" y1="76.9167016%" x2="85.0985105%" y2="0%" id="linearGradient-1">
            <stop stop-color="#317DD4" offset="0%"></stop>
            <stop stop-color="#933EC8" offset="100%"></stop>
        </linearGradient>
    </defs>
    <g id="Page-1" stroke="none" stroke-width="1" fill="none" fill-rule="evenodd">
        <g id="Artboard-3" transform="translate(-2368.000000, -400.000000)">
            <g id="Group-3" transform="translate(2368.000000, 400.000000)">
                <g id="Group-5">
                    <g id="Group" transform="translate(1055.000000, 12.000000)">
                        <circle id="Oval" fill="#FFFFFF" cx="115.5" cy="135.5" r="115.5"></circle>
                        <path d="M52,120.170953 L103.544048,171 C199.370681,58.6928534 247.855998,1.69285344 249,0" id="Path-2" stroke="url(#linearGradient-1)" stroke-width="28"></path>
                    </g>
                    <g id="Group-4">
                        <g id="noun-wireless-2074843">
                            <path d="M104.00003,116 C95.7905044,116.098684 88.1383653,120.138501 83.4764867,126.836474 C78.8147708,133.536704 77.7198963,142.061289 80.5409347,149.704336 C83.3641961,157.349533 89.7497443,163.159087 97.6735282,165.292517 L97.6735282,294.728176 C97.6735282,298.192676 100.507417,301 103.999976,301 C107.492535,301 110.326424,298.192676 110.326424,294.728176 L110.326424,165.292517 C118.249666,163.159194 124.635756,157.349533 127.459017,149.704336 C130.280164,142.061289 129.185181,133.536704 124.523465,126.836474 C119.86175,120.138393 112.209448,116.098367 103.999922,116 L104.00003,116 Z" id="Path" fill="#FFFFFF"></path>
                            <path d="M103.5,153 C100.185078,153 97.0040931,151.683675 94.6602092,149.339791 C92.3163252,146.995907 91,143.815189 91,140.5 C91,137.184811 92.3163252,134.004093 94.6602092,131.660209 C97.0040931,129.316325 100.184811,128 103.5,128 C106.815189,128 109.995907,129.316325 112.339791,131.660209 C114.683675,134.004093 116,137.184811 116,140.5 C116,143.815189 114.683675,146.995907 112.339791,149.339791 C109.995907,151.683675 106.815189,153 103.5,153 Z" id="Path" fill="#449495"></path>
                            <path d="M179.068379,68.3146893 C180.9275,70.0764852 181.506356,72.7763685 180.534529,75.1289618 C179.562703,77.4815552 177.232461,79.014487 174.652948,78.9998968 C172.99664,78.9936565 171.410046,78.3467447 170.235406,77.1985901 C152.582008,60.0508197 128.781477,50.4345857 103.983106,50.4345857 C79.1847346,50.4345857 55.384204,60.0508197 37.7308053,77.1985901 C35.2399893,79.6010245 31.2429474,79.5573604 28.8026994,77.1049891 C26.3626136,74.6526071 26.4048529,70.7172409 28.8977674,68.3146467 C48.9086663,48.8894173 75.8806539,38 103.981905,38 C132.083157,38 159.055144,48.8888848 179.066043,68.3146467 L179.068379,68.3146893 Z" id="Path" fill="#FFFFFF"></path>
                            <path d="M205.19284,50.1253438 L205.194947,50.1253438 C204.017043,51.3160898 202.407162,51.9887388 200.725644,51.9970814 C199.052541,52.0054374 197.444818,51.3557706 196.256341,50.1880202 C171.530929,26.0308399 138.208048,12.4880162 103.49559,12.4880162 C68.7831314,12.4880162 35.4570137,26.0308399 10.7348386,50.1880202 C8.26526434,52.61545 4.27837533,52.6028826 1.82773511,50.1566852 C-0.620801325,47.708399 -0.60812467,43.7558774 1.85934206,41.326362 C28.9447693,14.8460879 65.4583916,0 103.499146,0 C141.539901,0 178.054062,14.8466227 205.13895,41.326362 C207.595902,43.74331 207.623305,47.6747612 205.202166,50.1251331 L205.19284,50.1253438 Z" id="Path" fill="#FFFFFF"></path>
                            <path d="M151.172637,94.3083589 L151.174739,94.3062774 C153.60842,96.7314874 153.60842,100.649085 151.174739,103.074402 C149.995722,104.298465 148.362722,104.993765 146.654131,105 C145.008542,104.993755 143.430206,104.346321 142.26168,103.19724 C131.724014,93.0946849 117.632725,87.4446723 102.967368,87.4446723 C88.3020106,87.4446723 74.2107211,93.0946849 63.6752077,103.19724 C61.195257,105.601613 57.2189642,105.559992 54.7935687,103.105642 C52.3661825,100.649203 52.4082019,96.7106077 54.8860436,94.3060749 C67.7710916,81.9242231 85.0173321,75 102.967303,75 C120.919426,75 138.165667,81.9236902 151.048563,94.3060749 L151.172637,94.3083589 Z" id="Path" fill="#FFFFFF"></path>
                        </g>
                    </g>
                    <path d="M702.666281,72.1375 C686.013656,44.246875 651.347156,25 611.15625,25 C557.284781,25 513.259688,59.51875 509.436844,103.234375 C469.835813,112.5625 441,141.15625 441,175 C441,214.9375 481.156875,247.703125 531.75,250 L701.90625,250 C758.239313,250 804,210.128125 804,160.9375 C804,113.5375 759.180844,74.903125 702.666281,72.1375" id="Fill-84" stroke="#FFFFFF" stroke-width="13"></path>
                </g>
            </g>
        </g>
    </g>
</svg>