<?xml version="1.0" encoding="UTF-8"?>
<svg width="174px" height="174px" viewBox="0 0 174 174" version="1.1" xmlns="http://www.w3.org/2000/svg" xmlns:xlink="http://www.w3.org/1999/xlink">
    <!-- Generator: Sketch 49.3 (51167) - http://www.bohemiancoding.com/sketch -->
    <title>Group 6</title>
    <desc>Created with Sketch.</desc>
    <defs></defs>
    <g id="Page-1" stroke="none" stroke-width="1" fill="none" fill-rule="evenodd">
        <g id="Artboard-5" transform="translate(-1990.000000, -446.000000)">
            <g id="Group-6" transform="translate(1990.000000, 446.000000)">
                <rect id="Rectangle-20" fill-opacity="0.2" fill="#2F7DD5" x="0" y="0" width="24" height="24"></rect>
                <rect id="Rectangle-20" fill-opacity="0.4" fill="#2F7DD5" x="30" y="0" width="24" height="24"></rect>
                <rect id="Rectangle-20" fill-opacity="0.6" fill="#2F7DD5" x="60" y="0" width="24" height="24"></rect>
                <rect id="Rectangle-20" fill-opacity="0.8" fill="#2F7DD5" x="90" y="0" width="24" height="24"></rect>
                <rect id="Rectangle-20" fill="#2F7DD5" x="120" y="0" width="24" height="24"></rect>
                <rect id="Rectangle-20" fill="#2F7DD5" x="150" y="0" width="24" height="24"></rect>
                <rect id="Rectangle-20" fill-opacity="0.2" fill="#2F7DD5" x="0" y="30" width="24" height="24"></rect>
                <rect id="Rectangle-20" fill-opacity="0.4" fill="#2F7DD5" x="30" y="30" width="24" height="24"></rect>
                <rect id="Rectangle-20" fill="#E56E29" x="60" y="30" width="24" height="24"></rect>
                <rect id="Rectangle-20" fill-opacity="0.2" fill="#2F7DD5" x="90" y="30" width="24" height="24"></rect>
                <rect id="Rectangle-20" fill-opacity="0.4" fill="#2F7DD5" x="120" y="30" width="24" height="24"></rect>
                <rect id="Rectangle-20" fill-opacity="0.6" fill="#2F7DD5" x="150" y="30" width="24" height="24"></rect>
                <rect id="Rectangle-20" fill="#E56E29" x="0" y="60" width="24" height="24"></rect>
                <rect id="Rectangle-20" fill="#E56E29" x="30" y="60" width="24" height="24"></rect>
                <rect id="Rectangle-20" fill-opacity="0.2" fill="#2F7DD5" x="60" y="60" width="24" height="24"></rect>
                <rect id="Rectangle-20" fill-opacity="0.4" fill="#2F7DD5" x="90" y="60" width="24" height="24"></rect>
                <rect id="Rectangle-20" fill-opacity="0.6" fill="#2F7DD5" x="120" y="60" width="24" height="24"></rect>
                <rect id="Rectangle-20" fill-opacity="0.8" fill="#2F7DD5" x="150" y="60" width="24" height="24"></rect>
                <rect id="Rectangle-20" fill="#2F7DD5" x="0" y="90" width="24" height="24"></rect>
                <rect id="Rectangle-20" fill="#2F7DD5" x="30" y="90" width="24" height="24"></rect>
                <rect id="Rectangle-20" fill="#2F7DD5" x="60" y="90" width="24" height="24"></rect>
                <rect id="Rectangle-20" fill="#E56E29" x="90" y="90" width="24" height="24"></rect>
                <rect id="Rectangle-20" fill-opacity="0.2" fill="#2F7DD5" x="120" y="90" width="24" height="24"></rect>
                <rect id="Rectangle-20" fill-opacity="0.4" fill="#2F7DD5" x="150" y="90" width="24" height="24"></rect>
                <rect id="Rectangle-20" fill-opacity="0.6" fill="#2F7DD5" x="0" y="120" width="24" height="24"></rect>
                <rect id="Rectangle-20" fill-opacity="0.8" fill="#2F7DD5" x="30" y="120" width="24" height="24"></rect>
                <rect id="Rectangle-20" fill="#2F7DD5" x="60" y="120" width="24" height="24"></rect>
                <rect id="Rectangle-20" fill="#B9B9B9" x="90" y="120" width="24" height="24"></rect>
                <rect id="Rectangle-20" fill="#B9B9B9" x="120" y="120" width="24" height="24"></rect>
                <rect id="Rectangle-20" fill="#B9B9B9" x="150" y="120" width="24" height="24"></rect>
                <rect id="Rectangle-20" fill="#B9B9B9" x="0" y="150" width="24" height="24"></rect>
                <rect id="Rectangle-20" fill="#B9B9B9" x="30" y="150" width="24" height="24"></rect>
                <rect id="Rectangle-20" fill="#B9B9B9" x="60" y="150" width="24" height="24"></rect>
                <rect id="Rectangle-20" fill="#B9B9B9" x="90" y="150" width="24" height="24"></rect>
                <rect id="Rectangle-20" fill="#B9B9B9" x="120" y="150" width="24" height="24"></rect>
                <rect id="Rectangle-20" fill="#B9B9B9" x="150" y="150" width="24" height="24"></rect>
            </g>
        </g>
    </g>
</svg>